<svg xmlns="http://www.w3.org/2000/svg" viewBox="0 0 600 762" fill="none" stroke="#3a352c" stroke-linecap="round" stroke-linejoin="round">
  <rect width="600" height="762" fill="#f4f1ea" stroke="none"/>

  <!-- Light rays -->
  <g stroke="#cfc8b8" stroke-width="0.8">
    <line x1="0" y1="130" x2="280" y2="390"/>
    <line x1="0" y1="85" x2="310" y2="378"/>
    <line x1="45" y1="0" x2="345" y2="362"/>
    <line x1="100" y1="0" x2="375" y2="355"/>
  </g>

  <!-- House (background, partial) -->
  <g stroke-width="0.8" opacity="0.45">
    <path d="M185 448 L300 385 L415 448"/>
    <path d="M200 448 L200 535 L400 535 L400 448"/>
    <rect x="268" y="455" width="64" height="80" rx="2"/>
    <rect x="218" y="462" width="38" height="30" rx="1"/>
    <rect x="344" y="462" width="38" height="30" rx="1"/>
  </g>

  <!-- Ground -->
  <path d="M0 595 Q150 582 300 588 Q450 582 600 595" stroke-width="1.3"/>

  <!-- Stepping stones -->
  <ellipse cx="300" cy="682" rx="54" ry="21" stroke-width="1.1"/>
  <ellipse cx="296" cy="632" rx="46" ry="18" stroke-width="1.1"/>
  <ellipse cx="300" cy="588" rx="38" ry="15" stroke-width="1.1"/>

  <!-- Left tree — trunk -->
  <path d="M105 762 C110 700 96 638 106 578 C111 545 102 512 112 478 C117 458 107 432 118 408" stroke-width="1.6"/>
  <!-- Left tree — canopy -->
  <path d="M118 408 C106 372 78 348 88 312 C95 290 118 284 132 300 C145 316 140 342 150 358 C162 376 180 372 184 390 C188 408 175 424 170 442 C161 462 146 460 138 444 C130 428 136 410 126 404" stroke-width="1.2"/>
  <path d="M95 465 C70 444 46 450 33 428 C22 410 36 390 52 396 C66 401 70 418 80 424" stroke-width="1"/>
  <path d="M106 525 C78 514 52 524 36 508 C24 494 36 475 52 480 C65 484 70 500 82 504" stroke-width="1"/>

  <!-- Right plants — tall stem -->
  <path d="M494 762 L492 555" stroke-width="1.6"/>
  <!-- Right — agave leaves up -->
  <path d="M492 555 C463 524 438 520 427 496 C419 478 432 462 448 468 C464 475 468 496 478 506 C486 514 492 504 492 490" stroke-width="1.2"/>
  <path d="M492 490 C516 460 542 456 552 432 C560 416 547 398 530 406 C514 413 510 434 500 442 C492 450 492 440 492 428" stroke-width="1.2"/>
  <path d="M492 555 C470 590 456 598 446 620 C438 636 450 650 462 644 C475 638 476 622 485 614" stroke-width="1.2"/>

  <!-- Ground cover left -->
  <path d="M0 648 C28 626 50 635 64 618 C74 605 68 584 82 580" stroke-width="1"/>
  <path d="M0 690 C22 676 42 680 52 667" stroke-width="0.9"/>
  <!-- Ground cover right -->
  <path d="M600 664 C576 648 560 655 548 640 C538 628 544 612 556 610" stroke-width="1"/>

  <text x="300" y="745" font-family="Georgia, serif" font-size="9.5" fill="#9a958b" text-anchor="middle" letter-spacing="5" stroke="none">WHITE JUNGLE</text>
</svg>
