<svg xmlns="http://www.w3.org/2000/svg" viewBox="0 0 600 762" fill="none" stroke="#3a352c" stroke-linecap="round" stroke-linejoin="round">
  <rect width="600" height="762" fill="#f4f1ea" stroke="none"/>

  <!-- City skyline below -->
  <g stroke-width="0.8" opacity="0.35">
    <rect x="0"   y="572" width="44" height="190"/>
    <rect x="52"  y="604" width="36" height="158"/>
    <rect x="96"  y="538" width="50" height="224"/>
    <rect x="154" y="592" width="30" height="170"/>
    <rect x="192" y="560" width="40" height="202"/>
    <rect x="240" y="614" width="28" height="148"/>
    <rect x="276" y="582" width="34" height="180"/>
    <rect x="316" y="548" width="38" height="214"/>
  </g>
  <path d="M0 572 L380 572" stroke-width="0.9" opacity="0.3"/>

  <!-- Building — right column -->
  <path d="M430 762 L430 108" stroke-width="2.2"/>
  <path d="M600 762 L600 108" stroke-width="2.2"/>
  <path d="M430 108 L600 108" stroke-width="2.2"/>
  <!-- Floor lines -->
  <g stroke-width="0.55" opacity="0.38">
    <line x1="430" y1="572" x2="600" y2="572"/>
    <line x1="430" y1="536" x2="600" y2="536"/>
    <line x1="430" y1="500" x2="600" y2="500"/>
    <line x1="430" y1="464" x2="600" y2="464"/>
    <line x1="430" y1="428" x2="600" y2="428"/>
    <line x1="430" y1="392" x2="600" y2="392"/>
    <line x1="430" y1="356" x2="600" y2="356"/>
    <line x1="430" y1="320" x2="600" y2="320"/>
    <line x1="430" y1="284" x2="600" y2="284"/>
    <line x1="430" y1="248" x2="600" y2="248"/>
    <line x1="430" y1="212" x2="600" y2="212"/>
    <line x1="430" y1="176" x2="600" y2="176"/>
    <line x1="430" y1="140" x2="600" y2="140"/>
  </g>

  <!-- Terrace floor -->
  <path d="M72 168 L430 168" stroke-width="1.6"/>
  <path d="M72 168 L72 210" stroke-width="1.6"/>
  <!-- Railing -->
  <path d="M72 148 L430 148" stroke-width="1.1"/>
  <g stroke-width="0.7">
    <line x1="96"  y1="148" x2="96"  y2="168"/>
    <line x1="126" y1="148" x2="126" y2="168"/>
    <line x1="156" y1="148" x2="156" y2="168"/>
    <line x1="186" y1="148" x2="186" y2="168"/>
    <line x1="216" y1="148" x2="216" y2="168"/>
    <line x1="246" y1="148" x2="246" y2="168"/>
    <line x1="276" y1="148" x2="276" y2="168"/>
    <line x1="306" y1="148" x2="306" y2="168"/>
    <line x1="336" y1="148" x2="336" y2="168"/>
    <line x1="366" y1="148" x2="366" y2="168"/>
    <line x1="398" y1="148" x2="398" y2="168"/>
  </g>

  <!-- Large plant — center (cascading over railing) -->
  <path d="M210 168 C208 138 212 110 206 82" stroke-width="1.5"/>
  <path d="M206 82 C184 56 156 52 146 28 C138 8 154 -8 170 2 C185 12 186 38 196 50 C205 60 216 52 216 36 C216 18 204 0 218 -10" stroke-width="1.3"/>
  <path d="M206 82 C228 56 250 52 258 28 C264 10 250 -4 236 4 C222 12 220 36 210 48" stroke-width="1.3"/>
  <path d="M184 130 C162 110 146 112 136 92 C128 76 140 60 152 68 C164 76 166 94 174 100" stroke-width="1.1"/>
  <path d="M212 112 C228 90 246 88 252 68 C257 52 244 38 232 46" stroke-width="1.1"/>
  <!-- Cascading vines over railing -->
  <path d="M195 168 C188 196 178 218 170 248 C164 270 168 290 158 308" stroke-width="1"/>
  <path d="M222 168 C228 198 238 222 244 252 C248 272 242 292 248 312" stroke-width="1"/>

  <!-- Planters -->
  <path d="M330 168 L318 168 L316 140 L332 140 Z" stroke-width="1.1"/>
  <path d="M316 140 Q324 122 332 140" stroke-width="1.1"/>
  <path d="M380 168 L368 168 L366 152 L382 152 Z" stroke-width="1.1"/>
  <path d="M366 152 Q374 138 382 152" stroke-width="1.1"/>
  <!-- Plants in planters -->
  <path d="M324 140 C320 120 326 104 322 86" stroke-width="1"/>
  <path d="M322 86 C312 72 300 70 296 56" stroke-width="0.9"/>
  <path d="M322 86 C332 70 340 68 344 52" stroke-width="0.9"/>
  <path d="M374 152 C370 132 376 118 374 102" stroke-width="1"/>
  <path d="M374 102 C365 90 356 90 352 78" stroke-width="0.9"/>
  <path d="M374 102 C382 90 390 88 394 76" stroke-width="0.9"/>

  <!-- Wind lines (open sky) -->
  <g stroke="#cfc8b8" stroke-width="0.8">
    <path d="M0 272 Q62 262 105 272 Q138 280 168 270"/>
    <path d="M0 314 Q72 302 122 314 Q162 324 196 312"/>
    <path d="M18 356 Q88 344 140 356 Q180 366 216 353"/>
    <path d="M0 398 Q52 388 95 398 Q126 406 155 396"/>
    <path d="M0 440 Q44 430 75 440 Q100 448 126 437"/>
    <path d="M0 500 Q58 490 96 500 Q122 508 148 498"/>
  </g>

  <text x="215" y="745" font-family="Georgia, serif" font-size="9.5" fill="#9a958b" text-anchor="middle" letter-spacing="5" stroke="none">SKY GARDEN</text>
</svg>
